HIERARCHY
ROOT Hips
{
 OFFSET 0.000000 0.000000 0.000000
 CHANNELS 6 Xposition Yposition Zposition Yrotation Xrotation Zrotation
 JOINT Chest
 {
  OFFSET 0.000000 9.585900 0.002600
  CHANNELS 3 Yrotation Xrotation Zrotation
  JOINT Chest2
  {
   OFFSET 0.000000 9.601200 -0.005300
   CHANNELS 3 Yrotation Xrotation Zrotation
   JOINT Chest3
   {
    OFFSET 0.000000 9.561800 0.000000
    CHANNELS 3 Yrotation Xrotation Zrotation
    JOINT Chest4
    {
     OFFSET 0.000000 9.552100 0.000000
     CHANNELS 3 Yrotation Xrotation Zrotation
     JOINT Neck
     {
      OFFSET 0.000000 14.453000 0.000000
      CHANNELS 3 Yrotation Xrotation Zrotation
      JOINT Head
      {
       OFFSET 0.000000 8.936500 -0.011300
       CHANNELS 3 Yrotation Xrotation Zrotation
       End Site
       {
        OFFSET 0.000000 17.073600 -0.006000
       }
      }
     }
     JOINT RightCollar
     {
      OFFSET -2.921100 9.558500 0.000000
      CHANNELS 3 Yrotation Xrotation Zrotation
      JOINT RightShoulder
      {
       OFFSET -13.519700 0.000000 0.000000
       CHANNELS 3 Yrotation Xrotation Zrotation
       JOINT RightElbow
       {
        OFFSET 0.000000 -29.696600 0.000000
        CHANNELS 3 Yrotation Xrotation Zrotation
        JOINT RightWrist
        {
         OFFSET 0.000000 -24.004700 0.000000
         CHANNELS 3 Yrotation Xrotation Zrotation
         End Site
         {
          OFFSET 0.000000 -17.728500 0.000000
         }
        }
       }
      }
     }
     JOINT LeftCollar
     {
      OFFSET 2.921100 9.558500 0.000000
      CHANNELS 3 Yrotation Xrotation Zrotation
      JOINT LeftShoulder
      {
       OFFSET 13.519700 0.000000 0.000000
       CHANNELS 3 Yrotation Xrotation Zrotation
       JOINT LeftElbow
       {
        OFFSET 0.000000 -29.696600 0.000000
        CHANNELS 3 Yrotation Xrotation Zrotation
        JOINT LeftWrist
        {
         OFFSET 0.000000 -24.004700 0.000000
         CHANNELS 3 Yrotation Xrotation Zrotation
         End Site
         {
          OFFSET 0.000000 -17.728500 0.000000
         }
        }
       }
      }
     }
    }
   }
  }
 }
 JOINT RightHip
 {
  OFFSET -7.771700 -0.012900 -0.001300
  CHANNELS 3 Yrotation Xrotation Zrotation
  JOINT RightKnee
  {
   OFFSET 0.000000 -40.869800 0.001200
   CHANNELS 3 Yrotation Xrotation Zrotation
   JOINT RightAnkle
   {
    OFFSET 0.000000 -39.717900 0.002100
    CHANNELS 3 Yrotation Xrotation Zrotation
    JOINT RightToe
    {
     OFFSET 0.000000 -4.965400 11.033500
     CHANNELS 3 Yrotation Xrotation Zrotation
     End Site
     {
      OFFSET 0.000000 -1.423100 5.872300
     }
    }
   }
  }
 }
 JOINT LeftHip
 {
  OFFSET 7.771700 -0.012900 -0.001300
  CHANNELS 3 Yrotation Xrotation Zrotation
  JOINT LeftKnee
  {
   OFFSET 0.000000 -40.869800 0.001200
   CHANNELS 3 Yrotation Xrotation Zrotation
   JOINT LeftAnkle
   {
    OFFSET 0.000000 -39.717900 0.002100
    CHANNELS 3 Yrotation Xrotation Zrotation
    JOINT LeftToe
    {
     OFFSET 0.000000 -4.965400 11.033500
     CHANNELS 3 Yrotation Xrotation Zrotation
     End Site
     {
      OFFSET 0.000000 -1.423100 5.872300
     }
    }
   }
  }
 }
}
MOTION
Frames: 9
Frame Time: 0.008333
0.000000 85.388000 0.000000 0.000000 -5.767877 0.000000 0.000000 11.653817 0.000000 0.000000 -5.885947 0.000000 0.000000 -0.000000 0.000000 0.000000 -0.000000 0.000000 0.000000 12.528835 0.000000 0.000000 0.711642 0.000000 0.000000 -0.000000 0.000000 0.000000 0.000000 -90.000000 0.000000 -2.309062 0.000000 0.000000 2.309062 0.000000 0.000000 -0.000000 0.000000 0.000000 -0.000000 90.000000 0.000000 -2.309062 0.000000 0.000000 2.309062 0.000000 0.000000 8.520406 0.000000 0.000000 1.905762 0.000000 -0.000000 -4.658285 0.000000 0.000000 -0.000000 0.000000 0.000000 8.520406 0.000000 0.000000 1.905762 0.000000 -0.000000 -4.658285 0.000000 0.000000 -0.000000 0.000000
-16.002016 52.912459 10.905760 -177.808107 -17.421359 -2.033018 0.334714 16.032964 2.119060 0.009786 1.582826 0.216629 0.045398 2.655384 0.363385 0.293003 14.194077 1.992450 -1.932254 20.774597 -2.003949 -1.596501 -3.622804 -1.702305 1.652914 -4.320770 -1.383045 16.333480 -27.412752 -0.997459 -92.278431 -64.792858 127.792468 -6.560599 -25.110520 -23.190600 -3.736070 -4.748857 0.841980 -3.132400 -22.339577 -2.083651 78.233424 -50.237549 -120.890647 6.119647 -11.220749 -6.065008 3.325048 -61.001662 10.331516 -170.201410 85.782124 -171.475091 -14.083526 -23.047480 14.789015 0.022967 0.020879 -0.044261 3.566664 -59.770861 -2.985058 121.116000 77.828541 119.058581 -6.212090 -19.102110 -1.665303 0.004517 0.150204 0.041575
-16.002536 52.915107 10.901714 -177.821395 -17.408839 -2.040204 0.325362 16.018332 2.123861 0.008908 1.579756 0.215882 0.045426 2.658406 0.363128 0.282858 14.174536 1.986116 -1.917176 20.813816 -1.994078 -1.582899 -3.578111 -1.695477 1.662502 -4.287302 -1.371738 16.244832 -27.352315 -0.927106 -92.293540 -64.814531 127.841754 -6.536762 -25.124585 -23.252757 -3.761329 -4.700342 0.821734 -3.157199 -22.328707 -2.041256 78.213623 -50.228049 -120.878038 6.092836 -11.241011 -6.041818 3.262057 -61.006207 10.386673 -170.150495 85.786865 -171.431111 -13.917502 -23.055114 14.740119 0.021385 -0.003474 -0.050660 3.600998 -59.783177 -2.980935 121.161862 77.836074 119.117196 -6.231010 -19.098010 -1.665805 0.018755 0.138496 0.039232
-16.002160 52.918277 10.895328 -177.841564 -17.401310 -2.054551 0.329569 16.005440 2.138062 0.016650 1.581089 0.216579 0.028177 2.650621 0.362891 0.273176 14.148584 1.975468 -1.890940 20.858485 -1.987143 -1.587258 -3.530177 -1.669740 1.690843 -4.245405 -1.365674 16.150857 -27.294425 -0.857072 -92.300260 -64.830856 127.894273 -6.497896 -25.150475 -23.340622 -3.786131 -4.642418 0.805928 -3.213183 -22.294049 -2.000440 78.282836 -50.244838 -120.911380 6.161729 -11.118990 -6.052266 3.211779 -61.009061 10.450082 -169.794339 85.789220 -171.059338 -13.798325 -23.050995 14.698381 0.008825 -0.025532 -0.055970 3.636446 -59.793022 -2.961456 121.278827 77.846168 119.250537 -6.250918 -19.100945 -1.659419 0.035172 0.125378 0.042183
-16.004397 52.921028 10.888533 -177.856685 -17.388280 -2.057820 0.333588 15.987123 2.140792 0.018154 1.581638 0.217443 0.002829 2.619513 0.355367 0.293158 14.156844 1.974800 -1.884447 20.890799 -1.976003 -1.599266 -3.491507 -1.641186 1.679846 -4.214618 -1.342201 16.103735 -27.241471 -0.816664 -92.310173 -64.842077 127.949174 -6.460010 -25.184155 -23.442857 -3.835040 -4.601346 0.795583 -3.207110 -22.294062 -1.973797 78.231536 -50.254622 -120.877338 6.182747 -11.057148 -6.046871 3.205480 -61.016191 10.444615 -169.779142 85.786797 -171.054563 -13.499517 -23.069158 14.640283 0.017040 -0.052064 -0.064072 3.644828 -59.805999 -2.949659 121.345664 77.842369 119.315447 -6.250630 -19.105705 -1.656101 0.036693 0.117674 0.037475
-16.002956 52.923734 10.880193 -177.897175 -17.379309 -2.078091 0.377580 15.974713 2.172599 0.007853 1.570848 0.214027 0.003013 2.614431 0.354427 0.302976 14.164966 1.976545 -1.907639 20.897091 -1.954711 -1.599118 -3.460558 -1.629999 1.620155 -4.221920 -1.314835 16.124715 -27.186124 -0.797995 -92.296630 -64.845168 127.946660 -6.433182 -25.226134 -23.526128 -3.892945 -4.585839 0.785331 -3.192255 -22.293128 -1.950480 78.147194 -50.272067 -120.833603 6.174262 -11.039387 -6.024572 3.166792 -61.024628 10.498441 -169.675609 85.785452 -170.932765 -13.298130 -23.080814 14.578628 0.019101 -0.064196 -0.066516 3.649556 -59.817348 -2.899205 121.506520 77.831651 119.478762 -6.230990 -19.101809 -1.650786 0.018768 0.079706 0.030313
-16.005344 52.925628 10.871756 -177.911688 -17.367957 -2.084551 0.380154 15.957365 2.179194 0.007727 1.566765 0.212858 0.009662 2.615969 0.353373 0.295131 14.141440 1.968235 -1.902127 20.927639 -1.942003 -1.611454 -3.444578 -1.608336 1.617962 -4.194471 -1.301806 16.095205 -27.145382 -0.776202 -92.287940 -64.843149 127.939991 -6.417480 -25.270654 -23.585113 -3.922368 -4.552554 0.782953 -3.168297 -22.290981 -1.937009 78.116556 -50.282473 -120.821054 6.179555 -10.982178 -6.024141 3.140192 -61.028529 10.496654 -170.107972 85.787199 -171.358710 -13.099569 -23.101410 14.523233 0.019353 -0.074093 -0.071051 3.659868 -59.833511 -2.891550 121.592818 77.821417 119.572343 -6.229966 -19.106295 -1.652383 0.018737 0.066838 0.030739
-16.007417 52.926829 10.863115 -177.927167 -17.358563 -2.092894 0.384328 15.940133 2.183676 0.007771 1.563017 0.212045 0.016334 2.618715 0.355496 0.286956 14.118370 1.959847 -1.906266 20.948946 -1.921925 -1.597931 -3.430981 -1.618231 1.614849 -4.168826 -1.289179 16.062682 -27.101016 -0.760002 -92.311900 -64.843115 127.985017 -6.413366 -25.310301 -23.639729 -3.921935 -4.520310 0.786554 -3.216559 -22.291239 -1.922488 78.129322 -50.306228 -120.809520 6.176360 -10.937853 -6.024417 3.131624 -61.030766 10.477039 -170.656210 85.786263 -171.932893 -12.790381 -23.131087 14.473949 0.031211 -0.087991 -0.076084 3.660142 -59.844579 -2.883089 121.640766 77.809794 119.630621 -6.219207 -19.110395 -1.656673 0.019009 0.058953 0.022161
-16.009416 52.927013 10.855406 -177.941978 -17.347378 -2.100836 0.389395 15.923170 2.186000 0.007848 1.560071 0.211153 0.016321 2.613839 0.354001 0.286888 14.107133 1.953779 -1.930380 20.949227 -1.886477 -1.585308 -3.403723 -1.614765 1.595841 -4.154715 -1.270864 16.048128 -27.065658 -0.755278 -92.329656 -64.845448 128.025778 -6.416089 -25.345048 -23.682567 -3.964499 -4.498168 0.785540 -3.277766 -22.311410 -1.875812 78.135824 -50.341800 -120.767632 6.162725 -10.932757 -6.007045 3.124420 -61.039142 10.486002 -170.837493 85.784025 -172.116545 -12.734715 -23.137884 14.469622 0.031973 -0.082511 -0.067147 3.652774 -59.857333 -2.866283 121.691768 77.805301 119.692686 -6.214107 -19.118971 -1.669265 0.023289 0.060566 0.020893
